<svg xmlns="http://www.w3.org/2000/svg" width="96" height="35" fill="none"><path fill="#fff" d="M4.047 18.92c-.488 0-.94-.122-1.352-.366a2.716 2.716 0 0 1-.986-.98 2.639 2.639 0 0 1-.361-1.353v-3.2l2.08-.511v3.711c0 .173.059.318.177.437.122.122.27.183.442.183H5.15c.17 0 .31-.061.426-.183a.593.593 0 0 0 .178-.437V8.06l2.084-.523v8.684a2.674 2.674 0 0 1-1.341 2.333 2.6 2.6 0 0 1-1.347.366H4.047Zm7.779-3.248c-.489 0-.94-.12-1.352-.361a2.759 2.759 0 0 1-.986-.986 2.628 2.628 0 0 1-.361-1.347V8.071l2.074-.523v5.43c0 .173.06.318.183.437.122.118.27.178.442.178l.36 1.045-.36 1.034Zm-.367-1.034.377-1.046h.593c.172 0 .318-.059.436-.177a.584.584 0 0 0 .184-.437v-2.154l2.074-.512v2.666c0 .173.059.318.177.437.122.118.27.178.442.178l.366 1.04-.366 1.039a2.64 2.64 0 0 1-1.66-.577 2.643 2.643 0 0 1-1.653.577h-.593l-.377-1.034Zm.47-7.004h3.215v1.568h-3.216V7.634Zm3.441 7.004.372-1.046h2.209l.372 1.067-.372 1.013h-2.209l-.372-1.034Zm2.554 1.034-.345-1.034.356-1.046h.016c.169 0 .314-.059.436-.177a.584.584 0 0 0 .183-.437v-2.154l2.08-.512v2.666c0 .173.059.318.177.437a.587.587 0 0 0 .431.178l.378 1.045-.378 1.034a2.624 2.624 0 0 1-1.648-.577c-.233.184-.49.325-.77.426-.28.1-.577.15-.89.15h-.026Zm1.896 2.661h-3.216v-1.568h3.216v1.568Zm1.067-3.695.371-1.046h3.884v-.614a.572.572 0 0 0-.183-.425.596.596 0 0 0-.436-.183h-2.667l.512-2.08h2.155c.488 0 .937.12 1.347.361.413.24.74.568.98.98a2.6 2.6 0 0 1 .366 1.347v2.694h-5.958l-.371-1.034Zm5.29-1.046h1.562l.355 1.046-.355 1.034h-1.557l-.005-2.08Zm-2.726 3.179h1.59v1.567h-1.59v-1.567Zm4.234-1.1-.323-1.033.35-1.046h.022c.168 0 .312-.059.43-.177a.593.593 0 0 0 .178-.437v-2.154l2.085-.512v2.666c0 .485-.122.934-.366 1.347-.24.413-.568.742-.98.986-.414.24-.863.36-1.347.36h-.049Zm1.918 2.662h-3.216v-1.568h3.216v1.568Zm1.788-4.74h2.23v-.615a.587.587 0 0 0-.177-.43.58.58 0 0 0-.426-.178h-1.6v-2.08h1.6a2.6 2.6 0 0 1 1.342.361c.413.24.74.568.98.98.24.414.36.862.36 1.347v2.694h-4.309v-2.08Zm9.169 5.327c-.488 0-.94-.122-1.352-.366a2.716 2.716 0 0 1-.986-.98 2.638 2.638 0 0 1-.36-1.353v-3.2l2.078-.511v3.711c0 .173.06.318.178.437.122.122.27.183.442.183h1.104c.17 0 .311-.061.426-.183a.593.593 0 0 0 .178-.437v-5.397l2.084-.523v5.92c0 .489-.12.94-.36 1.352-.241.413-.568.74-.98.98a2.599 2.599 0 0 1-1.348.367H40.56Zm-1.018-9.11h1.589v1.568h-1.59V9.811Zm8.506 5.862c-.489 0-.94-.12-1.352-.361a2.759 2.759 0 0 1-.986-.986 2.629 2.629 0 0 1-.36-1.347V8.071l2.073-.523v5.43c0 .173.061.318.183.437.122.118.27.178.442.178l.36 1.045-.36 1.034Zm-.366-1.034.371-1.046h3.884v-.614a.572.572 0 0 0-.183-.425.596.596 0 0 0-.436-.183H48.65l.512-2.08h2.155c.488 0 .937.12 1.347.361.413.24.74.568.98.98a2.6 2.6 0 0 1 .366 1.347v2.694h-5.958l-.371-1.034Zm7.32-6.567 2.08-.523v8.124h-2.08V8.07Zm2.166 8.92 1.126-.759V10.84l2.08-.528v7.03l-2.058 1.379-1.148-1.73Zm3.814-1.32c-.262 0-.535-.125-.819-.376a3.392 3.392 0 0 1-.716-.921c-.19-.36-.286-.681-.286-.965l1.212-.43c0 .172.06.317.178.436a.587.587 0 0 0 .431.178l.367 1.045-.367 1.034Zm-.371-1.033.371-1.046h.582V7.56l2.074-.528v3.26h3.367c.485 0 .934.12 1.347.36.413.24.74.568.98.98.24.414.36.862.36 1.347 0 .489-.12.94-.36 1.353-.24.409-.567.736-.98.98-.413.24-.862.36-1.347.36h-6.023l-.371-1.033Zm6.394-1.046c.169 0 .312-.059.43-.177a.584.584 0 0 0 .184-.437.578.578 0 0 0-.183-.43.587.587 0 0 0-.431-.178h-3.367v1.223h3.367ZM3.098 22.702v.192H2.087v3.358h-.228v-3.358H.848v-.192h2.25Zm3.515 2.64H4.929l-.339.91h-.247l1.304-3.47H5.9l1.3 3.47h-.248l-.339-.91Zm-.07-.193-.77-2.068L5 25.15h1.542Zm4.105 1.103-.91-1.512h-.779v1.512h-.228v-3.55h.976c.395 0 .69.093.885.278.2.186.299.432.299.738a.997.997 0 0 1-.233.678c-.152.175-.374.283-.667.324l.93 1.532h-.273Zm-1.689-1.704h.759c.313 0 .547-.076.702-.228.155-.152.233-.352.233-.602 0-.542-.315-.814-.946-.814H8.96v1.644Zm5.58.794h-1.684l-.338.91h-.248l1.304-3.47h.253l1.3 3.47h-.248l-.339-.91Zm-.07-.193-.77-2.068-.773 2.068h1.542Zm4.717-2.447v3.55h-.227v-1.72h-2.074v1.72h-.227v-3.55h.227v1.638h2.073v-1.638h.228Zm3.808 2.64H21.31l-.339.91h-.248l1.305-3.47h.253l1.3 3.47h-.248l-.34-.91Zm-.071-.193-.769-2.068-.773 2.068h1.542Zm4.728 1.103h-.228l-2.083-3.176v3.176h-.228v-3.545h.228l2.083 3.165v-3.165h.228v3.545Zm2.79-3.55c.601 0 1.063.157 1.386.47.327.314.49.75.49 1.31s-.163.994-.49 1.305c-.323.31-.785.465-1.385.465h-.996v-3.55h.996Zm0 3.358c.537 0 .945-.139 1.225-.415.28-.28.42-.668.42-1.163 0-.499-.14-.888-.42-1.168-.28-.28-.688-.42-1.224-.42h-.769v3.166h.769Zm3.753-3.358v3.55h-.227v-3.55h.227Zm4.713 1.047a1.31 1.31 0 0 0-.506-.637 1.437 1.437 0 0 0-.829-.238c-.28 0-.533.066-.758.197a1.41 1.41 0 0 0-.536.561 1.756 1.756 0 0 0-.198.85c0 .324.066.607.198.85.131.242.31.43.536.56.225.129.478.193.758.193.27 0 .514-.06.733-.182.22-.121.395-.293.526-.516.132-.226.204-.489.218-.789h-1.583v-.192h1.815v.152c-.01.33-.09.627-.237.89-.149.263-.351.468-.607.617a1.693 1.693 0 0 1-.865.222c-.327 0-.622-.076-.885-.227a1.64 1.64 0 0 1-.617-.643 1.947 1.947 0 0 1-.222-.935c0-.35.074-.662.222-.935.149-.277.354-.491.617-.643a1.71 1.71 0 0 1 .885-.232c.381 0 .71.096.986.288.28.189.484.452.612.789h-.263Zm2.25-1.047v3.55h-.227v-3.55h.228Zm3.758 0v.192h-1.012v3.358h-.227v-3.358h-1.012v-.192h2.25Zm3.514 2.64h-1.683l-.34.91h-.247l1.305-3.47h.253l1.3 3.47h-.249l-.339-.91Zm-.07-.193-.769-2.068-.774 2.068h1.543Zm2.416.91h1.32v.193h-1.547v-3.55h.227v3.358Zm2.763.208a.192.192 0 0 1-.142-.056.192.192 0 0 1-.056-.141.192.192 0 0 1 .197-.197c.054 0 .1.018.137.055a.192.192 0 0 1 .056.142.192.192 0 0 1-.056.141.186.186 0 0 1-.136.056Zm1.61-1.785c0-.35.072-.662.217-.935.148-.277.35-.493.607-.648.26-.155.55-.232.87-.232.404 0 .745.094 1.021.283.276.189.479.453.607.794h-.263a1.28 1.28 0 0 0-.506-.637c-.233-.159-.519-.238-.86-.238-.273 0-.52.066-.743.197a1.346 1.346 0 0 0-.526.561 1.805 1.805 0 0 0-.192.855c0 .324.064.607.192.85a1.395 1.395 0 0 0 1.27.753c.34 0 .627-.078.86-.233.235-.158.404-.372.505-.642h.263c-.128.34-.33.605-.607.794-.276.189-.617.283-1.021.283-.32 0-.61-.076-.87-.227a1.661 1.661 0 0 1-.607-.643 1.983 1.983 0 0 1-.217-.935Zm6.576 1.81c-.327 0-.622-.076-.885-.227a1.63 1.63 0 0 1-.617-.648 1.947 1.947 0 0 1-.223-.935c0-.35.075-.662.223-.935.148-.277.354-.491.617-.643.263-.155.558-.232.885-.232.327 0 .622.077.885.232.263.152.468.366.617.643.148.273.222.584.222.935 0 .347-.074.659-.222.935a1.629 1.629 0 0 1-.617.648 1.738 1.738 0 0 1-.885.227Zm0-.202c.28 0 .533-.066.758-.197.226-.132.403-.319.531-.562.132-.242.198-.525.198-.85 0-.326-.066-.61-.198-.854a1.376 1.376 0 0 0-.53-.56 1.48 1.48 0 0 0-.76-.198c-.279 0-.532.066-.758.197a1.411 1.411 0 0 0-.536.561 1.768 1.768 0 0 0-.197.855c0 .324.066.607.197.85.132.242.31.43.536.56.226.132.479.198.759.198Zm6.685-3.312v3.474h-.228v-2.999l-1.335 2.999h-.182l-1.34-2.999v2.999h-.227v-3.474h.243l1.415 3.175 1.416-3.175h.238Z"></path><path fill="#fff" fill-rule="evenodd" d="M89.577 16.692a3.206 3.206 0 0 1-3.212 3.208v-6.417a3.214 3.214 0 0 1 3.212 3.209Zm-9.635 6.446h3.18v3.178h-3.18v-3.178H76.7V19.9h9.665v6.417c5.321 0 9.635-4.31 9.635-9.625 0-5.316-4.314-9.625-9.635-9.625v6.417h-6.423v-3.24h3.18V7.067h-3.18v3.178H76.7v3.239h3.242v9.655Z" clip-rule="evenodd"></path></svg>