<svg xmlns="http://www.w3.org/2000/svg" width="40" height="40" fill="none"><g clip-path="url(#a)"><path fill="#fff" d="m0 40 2.827-10.266a19.63 19.63 0 0 1-2.655-9.915C.172 8.888 9.112 0 20.086 0c5.33 0 10.334 2.063 14.088 5.808 3.763 3.745 5.836 8.726 5.826 14.02 0 10.933-8.94 19.82-19.924 19.82h-.01c-3.332 0-6.608-.836-9.522-2.414L0 40Zm11.05-6.35.602.361a16.66 16.66 0 0 0 8.424 2.3h.01c9.121 0 16.552-7.385 16.552-16.473 0-4.4-1.72-8.536-4.842-11.654-3.124-3.117-7.288-4.828-11.71-4.828-9.121-.01-16.552 7.376-16.552 16.463 0 3.109.87 6.141 2.53 8.765l.393.627-1.672 6.074 6.266-1.635Z"/><path fill="url(#b)" d="m.697 39.306 2.732-9.914A18.976 18.976 0 0 1 .85 19.829C.86 9.278 9.484.694 20.086.694c5.148 0 9.971 1.996 13.6 5.608a18.97 18.97 0 0 1 5.626 13.536c0 10.552-8.634 19.135-19.226 19.135h-.01c-3.218 0-6.38-.808-9.188-2.328L.698 39.306Z"/><path fill="url(#c)" d="m0 40 2.827-10.266a19.63 19.63 0 0 1-2.655-9.915C.172 8.888 9.112 0 20.086 0c5.33 0 10.334 2.063 14.088 5.808 3.763 3.745 5.836 8.726 5.826 14.02 0 10.933-8.94 19.82-19.924 19.82h-.01c-3.332 0-6.608-.836-9.522-2.414L0 40Zm11.05-6.35.602.361a16.66 16.66 0 0 0 8.424 2.3h.01c9.121 0 16.552-7.385 16.552-16.473 0-4.4-1.72-8.536-4.842-11.654-3.124-3.117-7.288-4.828-11.71-4.828-9.121-.01-16.552 7.376-16.552 16.463 0 3.109.87 6.141 2.53 8.765l.393.627-1.672 6.074 6.266-1.635Z"/><path fill="#fff" fill-rule="evenodd" d="M15.11 11.53c-.373-.827-.764-.846-1.118-.855-.286-.01-.62-.01-.955-.01-.334 0-.87.124-1.328.618-.458.495-1.738 1.692-1.738 4.135 0 2.434 1.786 4.791 2.035 5.124.248.332 3.447 5.494 8.5 7.48 4.203 1.655 5.062 1.322 5.97 1.237.907-.086 2.941-1.198 3.361-2.358.411-1.16.411-2.148.287-2.357-.124-.21-.458-.333-.955-.58-.497-.247-2.942-1.445-3.4-1.616-.459-.162-.793-.247-1.118.247-.334.494-1.29 1.607-1.576 1.94-.286.332-.582.37-1.079.123s-2.101-.77-4.002-2.462c-1.48-1.312-2.483-2.937-2.77-3.432-.286-.494-.028-.76.22-1.007.22-.219.497-.58.745-.865.248-.285.334-.495.497-.827.162-.333.086-.618-.039-.865-.124-.238-1.098-2.69-1.537-3.67Z" clip-rule="evenodd"/></g><defs><linearGradient id="b" x1="20.004" x2="20.004" y1="39.304" y2=".693" gradientUnits="userSpaceOnUse"><stop stop-color="#20B038"/><stop offset="1" stop-color="#60D66A"/></linearGradient><linearGradient id="c" x1="20.004" x2="20.004" y1="39.996" y2="0" gradientUnits="userSpaceOnUse"><stop stop-color="#F9F9F9"/><stop offset="1" stop-color="#fff"/></linearGradient><clipPath id="a"><path fill="#fff" d="M0 0h40v40H0z"/></clipPath></defs></svg>